<svg width="521" height="141" viewBox="0 0 521 141" fill="none" xmlns="http://www.w3.org/2000/svg">
<path d="M120.148 58.3926L99.1768 70.5005L120.148 82.6084L141.12 70.5005L120.148 58.3926Z" fill="#0E32FC"/>
<path d="M107.459 35.25L95.3516 56.2228H119.565L131.675 35.25H107.459Z" fill="#0E32FC"/>
<path d="M119.565 84.7773H95.3516L107.459 105.75H131.675L119.565 84.7773Z" fill="#0E32FC"/>
<path d="M105.87 107.339L84.8975 95.2314V119.445L105.87 131.555V107.339Z" fill="#0E32FC"/>
<path d="M84.8975 45.769L105.87 33.6611V9.44531L84.8975 21.5552V45.769Z" fill="#0E32FC"/>
<path d="M82.7285 20.9728L70.6206 0L58.5127 20.9728L70.6206 41.9436L82.7285 20.9728Z" fill="#0E32FC"/>
<path d="M58.5127 120.027L70.6206 141L82.7285 120.027L70.6206 99.0566L58.5127 120.027Z" fill="#0E32FC"/>
<path d="M56.3439 95.2314L35.3711 107.339V131.555L56.3439 119.445V95.2314Z" fill="#0E32FC"/>
<path d="M35.3711 33.6611L56.3439 45.769V21.5552L35.3711 9.44531V33.6611Z" fill="#0E32FC"/>
<path d="M21.6744 56.2228H45.8882L33.7803 35.25H9.56445L21.6744 56.2228Z" fill="#0E32FC"/>
<path d="M33.7803 105.75L45.8882 84.7773H21.6744L9.56445 105.75H33.7803Z" fill="#0E32FC"/>
<path d="M21.0929 82.6084L42.0637 70.5005L21.0929 58.3926L0.120117 70.5005L21.0929 82.6084Z" fill="#0E32FC"/>
<path d="M176.899 34.7628L194.166 89.0403H194.828L212.13 34.7628H228.874L204.247 106.203H184.782L160.12 34.7628H176.899Z" fill="white"/>
<path d="M252.577 34.7628V106.203H237.472V34.7628H252.577Z" fill="white"/>
<path d="M303.758 55.3087C303.479 52.4949 302.282 50.3089 300.165 48.7508C298.049 47.1927 295.177 46.4137 291.549 46.4137C289.084 46.4137 287.003 46.7625 285.305 47.4601C283.608 48.1345 282.305 49.0764 281.398 50.2856C280.515 51.4949 280.073 52.867 280.073 54.4018C280.026 55.6808 280.294 56.7971 280.875 57.7505C281.48 58.704 282.305 59.5296 283.352 60.2272C284.398 60.9016 285.608 61.4946 286.98 62.0062C288.352 62.4946 289.817 62.9132 291.375 63.262L297.793 64.7968C300.909 65.4945 303.77 66.4247 306.374 67.5874C308.979 68.7502 311.235 70.1804 313.142 71.878C315.049 73.5756 316.525 75.5756 317.572 77.8778C318.642 80.1801 319.188 82.8195 319.211 85.7962C319.188 90.1682 318.072 93.9587 315.863 97.1679C313.677 100.354 310.514 102.831 306.374 104.598C302.258 106.342 297.293 107.214 291.48 107.214C285.712 107.214 280.689 106.33 276.41 104.563C272.155 102.796 268.829 100.179 266.434 96.7145C264.062 93.2262 262.818 88.9124 262.701 83.773H277.317C277.48 86.1683 278.166 88.1682 279.375 89.7728C280.608 91.3542 282.247 92.5518 284.294 93.3657C286.363 94.1564 288.701 94.5518 291.305 94.5518C293.863 94.5518 296.084 94.1796 297.968 93.4355C299.875 92.6913 301.351 91.6565 302.398 90.3309C303.444 89.0054 303.968 87.4822 303.968 85.7613C303.968 84.1567 303.491 82.8079 302.537 81.7149C301.607 80.6219 300.235 79.6917 298.421 78.9243C296.631 78.1569 294.433 77.4593 291.828 76.8314L284.05 74.8779C278.026 73.4129 273.271 71.1222 269.783 68.006C266.294 64.8899 264.562 60.6923 264.585 55.4134C264.562 51.0879 265.713 47.309 268.038 44.0765C270.387 40.8441 273.608 38.3209 277.701 36.507C281.794 34.6931 286.445 33.7861 291.654 33.7861C296.956 33.7861 301.584 34.6931 305.537 36.507C309.514 38.3209 312.607 40.8441 314.816 44.0765C317.025 47.309 318.165 51.0531 318.235 55.3087H303.758Z" fill="white"/>
<path d="M373.497 34.7628H388.602V81.1568C388.602 86.3659 387.357 90.9239 384.869 94.8308C382.404 98.7377 378.951 101.784 374.509 103.97C370.067 106.133 364.893 107.214 358.986 107.214C353.056 107.214 347.87 106.133 343.429 103.97C338.987 101.784 335.533 98.7377 333.068 94.8308C330.603 90.9239 329.371 86.3659 329.371 81.1568V34.7628H344.475V79.8662C344.475 82.587 345.068 85.0055 346.254 87.1217C347.463 89.238 349.161 90.9007 351.347 92.11C353.533 93.3192 356.079 93.9239 358.986 93.9239C361.916 93.9239 364.463 93.3192 366.626 92.11C368.812 90.9007 370.498 89.238 371.684 87.1217C372.893 85.0055 373.497 82.587 373.497 79.8662V34.7628Z" fill="white"/>
<path d="M474.509 106.203V34.7628H489.613V93.7494H520.24V106.203H474.509Z" fill="white"/>
<path d="M411.853 106.288L429.12 52.0101H429.783L447.085 106.288H463.828L439.201 34.8478H419.737L395.075 106.288H411.853Z" fill="white"/>
</svg>
