<svg width="500" height="500" viewBox="0 0 500 500" fill="none" xmlns="http://www.w3.org/2000/svg">
<path d="M425.631 207.066L351.265 250.002L425.631 292.938L500 250.002L425.631 207.066Z" fill="#0E32FC"/>
<path d="M380.634 125L337.7 199.372H423.563L466.507 125H380.634Z" fill="#0E32FC"/>
<path d="M423.563 300.629H337.7L380.634 375H466.507L423.563 300.629Z" fill="#0E32FC"/>
<path d="M375 380.635L300.629 337.7V423.564L375 466.507V380.635Z" fill="#0E32FC"/>
<path d="M300.629 162.302L375 119.366V33.4941L300.629 76.4371V162.302Z" fill="#0E32FC"/>
<path d="M292.938 74.3717L250.002 0L207.066 74.3717L250.002 148.736L292.938 74.3717Z" fill="#0E32FC"/>
<path d="M207.066 425.628L250.002 500L292.938 425.628L250.002 351.265L207.066 425.628Z" fill="#0E32FC"/>
<path d="M199.376 337.7L125.004 380.635V466.507L199.376 423.564V337.7Z" fill="#0E32FC"/>
<path d="M125.004 119.366L199.376 162.302V76.4371L125.004 33.4941V119.366Z" fill="#0E32FC"/>
<path d="M76.4334 199.372H162.298L119.362 125H33.4902L76.4334 199.372Z" fill="#0E32FC"/>
<path d="M119.362 375L162.298 300.629H76.4334L33.4902 375H119.362Z" fill="#0E32FC"/>
<path d="M74.3717 292.938L148.736 250.002L74.3717 207.066L0 250.002L74.3717 292.938Z" fill="#0E32FC"/>
</svg>
